# xmcd
#
# Track frame offsets:
#	150
#	14814
#	30548
#	48393
#	66644
#	81693
#	94858
#	108726
#	127503
#	143034
#	158029
#	177571
#	196454
#	209088
#	223394
#	238364
#	254687
#	270700
#	286707
#
# Disc length: 4043 seconds
#
# Revision: 1
# Processed by: cddbd v1.5.2PL0 Copyright (c) Steve Scherf et al.
# Submitted via: audiograbber 1.83.01
#
DISCID=380fc913
DTITLE=Various Artist - CDX 496
DYEAR=2010
DGENRE=Country
TTITLE0=Josh Turner - All Over Me
TTITLE1=Rodney Atkins - Farmer's Daughter
TTITLE2=Gary Allan - Get Off On the Pain
TTITLE3=Eli Young Band - Guinevere
TTITLE4=Trailor Choir - Rollin' Through the Sunshine
TTITLE5=Ray Stevens - Caribou Barbie
TTITLE6=Brady Seals - Been There, Drunk That
TTITLE7=Paul Overstreet - Kennesaw Cove  
TTITLE8=Jason Mitchell - Slow and Steady
TTITLE9=The Springs - Summer All Year Long
TTITLE10=Johnny Rivers - The American Dream
TTITLE11=Tony Denikos - Big Easy Down
TTITLE12=Michael Jonathan - Cars
TTITLE13=Colt Ford - Chicken and Biscuits
TTITLE14=Savannah Jack - I Know
TTITLE15=Nathan Lee Jackson - Inside
TTITLE16=Bad Boy Leroy - Late Night Lovin'
TTITLE17=Cory Walker - Soldier's Last Letter
TTITLE18=Sonny Marshall - Wanna Be Like Him
EXTD=
EXTT0=
EXTT1=
EXTT2=
EXTT3=
EXTT4=
EXTT5=
EXTT6=
EXTT7=
EXTT8=
EXTT9=
EXTT10=
EXTT11=
EXTT12=
EXTT13=
EXTT14=
EXTT15=
EXTT16=
EXTT17=
EXTT18=
PLAYORDER=
